<?xml version="1.0" encoding="UTF-8"?>
<svg width="149px" height="112px" viewBox="0 0 149 112" version="1.1" xmlns="http://www.w3.org/2000/svg" xmlns:xlink="http://www.w3.org/1999/xlink">
    <title>画板</title>
    <g id="画板" stroke="none" stroke-width="1" fill="none" fill-rule="evenodd">
        <g id="编组">
            <path d="M148.8,9.10650551 C148.8,9.10650551 138.131461,-0.709386194 118.129885,0.0409223132 C99.1231628,0.756422694 90.0843243,10.522036 90.0843243,10.522036 L100.481892,26.212766 C100.481892,26.212766 107.651026,19.0616297 119.422807,19.0616297 C131.833307,19.0616297 138.917278,25.0950383 138.917278,25.0950383 L148.8,9.10650551 Z" id="Fill-44" fill="#AA182C"></path>
            <path d="M98.0498259,63.5635828 C98.0498259,63.5635828 106.69194,67.930551 118.788578,67.8734416 C137.194655,67.7896811 148.8,58.5646034 148.8,58.5646034 L139.206248,43.1564772 C139.206248,43.1564772 123.511953,53.7902544 106.568149,46.126168 C99.2297027,42.806206 95.7713098,35.907386 92.088547,30.1545621 C88.5373114,24.5959102 84.6804684,19.5474359 84.2858867,19.0677167 C83.2800901,17.849382 82.4135576,16.8252194 81.3613397,15.6944526 C62.8933672,-4.15298045 31.8684113,-3.63899552 14.0309959,14.0611227 C-8.70000664,36.6193503 3.0213919,78.6100158 3.0213919,78.6100158 C3.0213919,78.6100158 10.0232834,111.714453 49.4427723,112 L68.7385927,112 L68.638013,47.9079824 C68.638013,47.9079824 62.2666786,32.0734391 49.7135636,28.3841695 L49.7135636,92.5142601 C49.7135636,92.5142601 18.8317404,95.4382632 18.8394773,58.3856605 C18.8472142,24.1580712 37.025053,19.4256025 47.6362069,19.5169776 C67.5741897,19.6883059 76.8159129,41.5536057 79.4658,45.71498 C81.7211054,49.2595724 79.353615,112 79.353615,112 L98.0498259,112 L98.0498259,63.5635828 Z" id="Fill-45" fill="#215AA8"></path>
        </g>
    </g>
</svg>